<?xml version="1.0" encoding="iso-8859-1"?>
<!-- Generator: Adobe Illustrator 19.0.0, SVG Export Plug-In . SVG Version: 6.00 Build 0)  -->
<svg xmlns="http://www.w3.org/2000/svg" xmlns:xlink="http://www.w3.org/1999/xlink" version="1.1" id="Layer_1" x="0px" y="0px" viewBox="0 0 360 360" style="enable-background:new 0 0 360 360;" xml:space="preserve" width="512px" height="512px">
<g id="XMLID_91_">
	<path id="XMLID_92_" d="M355.606,334.381l-63.854-63.855C315.619,241.903,330,205.107,330,165.013c0-90.981-74.019-165-165-165   S0,74.031,0,165.013s74.019,165,165,165c40.107,0,76.914-14.391,105.541-38.271l63.853,63.853   c2.929,2.929,6.768,4.393,10.606,4.393s7.678-1.464,10.606-4.393C361.465,349.736,361.465,340.239,355.606,334.381z M95,235.013   c0-38.663,31.341-70,70-70c-24.852,0-45.001-20.147-45.001-45.001S140.148,75.013,165,75.013s45,20.146,45,44.999   s-20.148,45.001-45,45.001c38.658,0,69.999,31.337,69.999,70H95z" fill="#FFFEFE"/>
</g>
<g>
</g>
<g>
</g>
<g>
</g>
<g>
</g>
<g>
</g>
<g>
</g>
<g>
</g>
<g>
</g>
<g>
</g>
<g>
</g>
<g>
</g>
<g>
</g>
<g>
</g>
<g>
</g>
<g>
</g>
</svg>
